<?xml version="1.0" encoding="utf-8"?>
<!-- Generator: Adobe Illustrator 27.7.0, SVG Export Plug-In . SVG Version: 6.00 Build 0)  -->
<svg version="1.1" id="Layer_1" xmlns="http://www.w3.org/2000/svg" xmlns:xlink="http://www.w3.org/1999/xlink" x="0px" y="0px"
	 viewBox="0 0 1000 1000" style="enable-background:new 0 0 1000 1000;" xml:space="preserve">
<style type="text/css">
	.st0{fill:#FF0000;}
	.st1{display:none;}
	.st2{fill-rule:evenodd;clip-rule:evenodd;fill:#FFFFFF;}
	.st3{fill:#FFFFFF;}
</style>
<g>
	<circle class="st0" cx="500" cy="500" r="500"/>
</g>
<path class="st1" d="M500,937.5C258.4,937.5,62.5,741.6,62.5,500S258.4,62.5,500,62.5S937.5,258.4,937.5,500S741.6,937.5,500,937.5
	 M500,1000c276.1,0,500-223.9,500-500S776.1,0,500,0S0,223.9,0,500S223.9,1000,500,1000"/>
<path class="st2" d="M193.2,325.9c0-10.7,8.7-19.3,19.3-19.3h19.3c85.2,0,148,48,188.5,93.5c19,21.4,33.5,42.6,43.6,59.3
	c10.1-16.6,24.6-37.9,43.6-59.3c40.5-45.6,103.4-93.5,188.5-93.5v38.7c-69.6,0-122.7,39.1-159.6,80.5c-19.9,22.6-37.1,47.5-51,74.2
	c13.9,26.7,31,51.6,50.9,74.2c36.9,41.5,90.2,80.5,159.6,80.5v38.7c-85.2,0-148-48-188.5-93.5c-16.3-18.4-30.8-38.2-43.6-59.3
	c-10.1,16.6-24.6,37.9-43.6,59.3c-40.5,45.6-103.4,93.5-188.5,93.5h-19.3c-10.7,0-19.3-8.7-19.3-19.3c0-10.7,8.7-19.3,19.3-19.3
	h19.3c69.6,0,122.7-39.1,159.6-80.5c19.9-22.6,37.1-47.5,51-74.2c-13.9-26.7-31-51.6-50.9-74.2c-36.9-41.5-90.2-80.5-159.6-80.5
	h-19.3C201.9,345.3,193.2,336.6,193.2,325.9"/>
<path class="st3" d="M696.1,402V249.9c0-5.3,4.3-9.7,9.7-9.7c2.3,0,4.4,0.8,6.2,2.2l91.3,76.1c4.6,3.9,4.6,11,0,14.9L712,409.4
	c-4.1,3.4-10.2,2.9-13.6-1.2C696.9,406.4,696.1,404.2,696.1,402 M696.1,750.1V598c0-5.3,4.3-9.7,9.7-9.7c2.3,0,4.4,0.8,6.2,2.2
	l91.3,76.1c4.6,3.9,4.6,11,0,14.9L712,757.6c-4.1,3.4-10.2,2.9-13.6-1.2C696.9,754.6,696.1,752.4,696.1,750.1"/>
</svg>
