<?xml version="1.0" encoding="utf-8"?>
<!-- Generator: Adobe Illustrator 27.7.0, SVG Export Plug-In . SVG Version: 6.00 Build 0)  -->
<svg version="1.1" id="Layer_1" xmlns="http://www.w3.org/2000/svg" xmlns:xlink="http://www.w3.org/1999/xlink" x="0px" y="0px"
	 viewBox="0 0 1000 1000" style="enable-background:new 0 0 1000 1000;" xml:space="preserve">
<style type="text/css">
	.st0{fill:#339900;}
	.st1{fill-rule:evenodd;clip-rule:evenodd;fill:#FFFFFF;}
</style>
<g>
	<path class="st0" d="M500,999.5c-67.4,0-132.8-13.2-194.4-39.3c-59.5-25.2-112.9-61.2-158.8-107c-45.9-45.9-81.9-99.3-107-158.8
		c-26-61.6-39.3-127-39.3-194.4s13.2-132.8,39.3-194.4c25.2-59.5,61.2-112.9,107-158.8c45.9-45.9,99.3-81.9,158.8-107
		c61.6-26,127-39.3,194.4-39.3s132.8,13.2,194.4,39.3c59.5,25.2,112.9,61.2,158.8,107c45.9,45.9,81.9,99.3,107,158.8
		c26,61.6,39.3,127,39.3,194.4s-13.2,132.8-39.3,194.4c-25.2,59.5-61.2,112.9-107,158.8c-45.9,45.9-99.3,81.9-158.8,107
		C632.8,986.3,567.4,999.5,500,999.5z"/>
	<path d="M500,1c67.4,0,132.7,13.2,194.2,39.2c59.4,25.1,112.8,61.1,158.6,106.9s81.8,99.2,106.9,158.6
		c26,61.5,39.2,126.9,39.2,194.2s-13.2,132.7-39.2,194.2c-25.1,59.4-61.1,112.8-106.9,158.6s-99.2,81.8-158.6,106.9
		C632.7,985.8,567.4,999,500,999s-132.7-13.2-194.2-39.2c-59.4-25.1-112.8-61.1-158.6-106.9S65.3,753.7,40.2,694.2
		C14.2,632.7,1,567.4,1,500s13.2-132.7,39.2-194.2c25.1-59.4,61.1-112.8,106.9-158.6s99.2-81.8,158.6-106.9
		C367.3,14.2,432.6,1,500,1 M500,0C223.9,0,0,223.9,0,500s223.9,500,500,500s500-223.9,500-500S776.1,0,500,0L500,0z"/>
</g>
<path class="st1" d="M267.8,215.6c25.9-25.9,67.9-25.8,93.7,0.1c1.9,1.9,3.7,4,5.4,6.1l68.2,87.6c12.5,16.1,16.9,37,12,56.7
	l-20.8,83.2c-2.2,8.8,0.4,18,6.8,24.4l93.3,93.3c6.4,6.4,15.7,8.9,24.5,6.8l83.1-20.8c19.7-4.9,40.7-0.5,56.7,12l87.6,68.1
	c31.5,24.5,34.4,71,6.2,99.2l-39.3,39.3c-28.1,28.1-70.1,40.4-109.3,26.7c-100.2-35.2-191.2-92.6-266.2-167.9
	c-75.3-75-132.6-166-167.9-266.2c-13.7-39.1-1.4-81.2,26.7-109.3L267.8,215.6z"/>
</svg>
