<?xml version="1.0" encoding="utf-8"?>
<!-- Generator: Adobe Illustrator 27.7.0, SVG Export Plug-In . SVG Version: 6.00 Build 0)  -->
<svg version="1.1" id="Layer_1" xmlns="http://www.w3.org/2000/svg" xmlns:xlink="http://www.w3.org/1999/xlink" x="0px" y="0px"
	 viewBox="0 0 1000 1000" style="enable-background:new 0 0 1000 1000;" xml:space="preserve">
<style type="text/css">
	.st0{fill:#FFFFFF;}
</style>
<g>
	<circle cx="500" cy="500" r="500"/>
</g>
<path class="st0" d="M331.1,248v84.2h-84.2V248H331.1z M373.1,753v-84.2c0-23.2-18.8-42.1-42.1-42.1h-84.2
	c-23.2,0-42.1,18.8-42.1,42.1V753c0,23.2,18.8,42.1,42.1,42.1h84.2C354.3,795,373.1,776.2,373.1,753 M373.1,542.5v-84.2
	c0-23.2-18.8-42.1-42.1-42.1h-84.2c-23.2,0-42.1,18.8-42.1,42.1v84.2c0,23.2,18.8,42.1,42.1,42.1h84.2
	C354.3,584.6,373.1,565.8,373.1,542.5 M373.1,332.1V248c0-23.2-18.8-42.1-42.1-42.1h-84.2c-23.2,0-42.1,18.8-42.1,42.1v84.2
	c0,23.2,18.8,42.1,42.1,42.1h84.2C354.3,374.2,373.1,355.4,373.1,332.1 M583.6,753v-84.2c0-23.2-18.8-42.1-42.1-42.1h-84.2
	c-23.2,0-42.1,18.8-42.1,42.1V753c0,23.2,18.8,42.1,42.1,42.1h84.2C564.7,795,583.6,776.2,583.6,753 M583.6,542.5v-84.2
	c0-23.2-18.8-42.1-42.1-42.1h-84.2c-23.2,0-42.1,18.8-42.1,42.1v84.2c0,23.2,18.8,42.1,42.1,42.1h84.2
	C564.7,584.6,583.6,565.8,583.6,542.5 M583.6,332.1V248c0-23.2-18.8-42.1-42.1-42.1h-84.2c-23.2,0-42.1,18.8-42.1,42.1v84.2
	c0,23.2,18.8,42.1,42.1,42.1h84.2C564.7,374.2,583.6,355.4,583.6,332.1 M541.5,248v84.2h-84.2V248H541.5z M751.9,248v84.2h-84.2V248
	H751.9z M331.1,458.4v84.2h-84.2v-84.2H331.1z M541.5,458.4v84.2h-84.2v-84.2H541.5z M751.9,458.4h-84.2v84.2h84.2V458.4z
	 M331.1,668.8V753h-84.2v-84.2H331.1z M541.5,668.8V753h-84.2v-84.2H541.5z M751.9,668.8V753h-84.2v-84.2H751.9z M667.7,205.9
	c-23.2,0-42.1,18.8-42.1,42.1v84.2c0,23.2,18.8,42.1,42.1,42.1h84.2c23.2,0,42.1-18.8,42.1-42.1V248c0-23.2-18.8-42.1-42.1-42.1
	H667.7z M625.6,458.4c0-23.2,18.8-42.1,42.1-42.1h84.2c23.2,0,42.1,18.8,42.1,42.1v84.2c0,23.2-18.8,42.1-42.1,42.1h-84.2
	c-23.2,0-42.1-18.8-42.1-42.1V458.4z M667.7,626.7c-23.2,0-42.1,18.8-42.1,42.1V753c0,23.2,18.8,42.1,42.1,42.1h84.2
	c23.2,0,42.1-18.8,42.1-42.1v-84.2c0-23.2-18.8-42.1-42.1-42.1H667.7z"/>
</svg>
