<?xml version="1.0" encoding="utf-8"?>
<!-- Generator: Adobe Illustrator 27.7.0, SVG Export Plug-In . SVG Version: 6.00 Build 0)  -->
<svg version="1.1" id="Layer_1" xmlns="http://www.w3.org/2000/svg" xmlns:xlink="http://www.w3.org/1999/xlink" x="0px" y="0px"
	 viewBox="0 0 1000 1000" style="enable-background:new 0 0 1000 1000;" xml:space="preserve">
<style type="text/css">
	.st0{fill:#FFFFFF;}
</style>
<g>
	<circle cx="500" cy="500" r="500"/>
</g>
<path class="st0" d="M211,252.3c0-22.8,18.5-41.3,41.3-41.3h82.6c22.8,0,41.3,18.5,41.3,41.3v82.6c0,22.8-18.5,41.3-41.3,41.3h-82.6
	c-22.8,0-41.3-18.5-41.3-41.3V252.3z M417.4,252.3c0-22.8,18.5-41.3,41.3-41.3h82.6c22.8,0,41.3,18.5,41.3,41.3v82.6
	c0,22.8-18.5,41.3-41.3,41.3h-82.6c-22.8,0-41.3-18.5-41.3-41.3V252.3z M623.8,252.3c0-22.8,18.5-41.3,41.3-41.3h82.6
	c22.8,0,41.3,18.5,41.3,41.3v82.6c0,22.8-18.5,41.3-41.3,41.3h-82.6c-22.8,0-41.3-18.5-41.3-41.3V252.3z M211,458.7
	c0-22.8,18.5-41.3,41.3-41.3h82.6c22.8,0,41.3,18.5,41.3,41.3v82.6c0,22.8-18.5,41.3-41.3,41.3h-82.6c-22.8,0-41.3-18.5-41.3-41.3
	V458.7z M417.4,458.7c0-22.8,18.5-41.3,41.3-41.3h82.6c22.8,0,41.3,18.5,41.3,41.3v82.6c0,22.8-18.5,41.3-41.3,41.3h-82.6
	c-22.8,0-41.3-18.5-41.3-41.3V458.7z M623.8,458.7c0-22.8,18.5-41.3,41.3-41.3h82.6c22.8,0,41.3,18.5,41.3,41.3v82.6
	c0,22.8-18.5,41.3-41.3,41.3h-82.6c-22.8,0-41.3-18.5-41.3-41.3V458.7z M211,665.1c0-22.8,18.5-41.3,41.3-41.3h82.6
	c22.8,0,41.3,18.5,41.3,41.3v82.6c0,22.8-18.5,41.3-41.3,41.3h-82.6c-22.8,0-41.3-18.5-41.3-41.3V665.1z M417.4,665.1
	c0-22.8,18.5-41.3,41.3-41.3h82.6c22.8,0,41.3,18.5,41.3,41.3v82.6c0,22.8-18.5,41.3-41.3,41.3h-82.6c-22.8,0-41.3-18.5-41.3-41.3
	V665.1z M623.8,665.1c0-22.8,18.5-41.3,41.3-41.3h82.6c22.8,0,41.3,18.5,41.3,41.3v82.6c0,22.8-18.5,41.3-41.3,41.3h-82.6
	c-22.8,0-41.3-18.5-41.3-41.3V665.1z"/>
</svg>
