<?xml version="1.0" encoding="utf-8"?>
<!-- Generator: Adobe Illustrator 27.7.0, SVG Export Plug-In . SVG Version: 6.00 Build 0)  -->
<svg version="1.1" id="Layer_1" xmlns="http://www.w3.org/2000/svg" xmlns:xlink="http://www.w3.org/1999/xlink" x="0px" y="0px"
	 viewBox="0 0 1000 1000" style="enable-background:new 0 0 1000 1000;" xml:space="preserve">
<style type="text/css">
	.st0{fill:#FF0000;}
	.st1{fill-rule:evenodd;clip-rule:evenodd;fill:#FFFFFF;}
</style>
<g>
	<path class="st0" d="M500,999.5c-67.4,0-132.8-13.2-194.4-39.3c-59.5-25.2-112.9-61.2-158.8-107c-45.9-45.9-81.9-99.3-107-158.8
		c-26-61.6-39.3-127-39.3-194.4s13.2-132.8,39.3-194.4c25.2-59.5,61.2-112.9,107-158.8c45.9-45.9,99.3-81.9,158.8-107
		c61.6-26,127-39.3,194.4-39.3s132.8,13.2,194.4,39.3c59.5,25.2,112.9,61.2,158.8,107c45.9,45.9,81.9,99.3,107,158.8
		c26,61.6,39.3,127,39.3,194.4s-13.2,132.8-39.3,194.4c-25.2,59.5-61.2,112.9-107,158.8c-45.9,45.9-99.3,81.9-158.8,107
		C632.8,986.3,567.4,999.5,500,999.5z"/>
	<path d="M500,1c67.4,0,132.7,13.2,194.2,39.2c59.4,25.1,112.8,61.1,158.6,106.9s81.8,99.2,106.9,158.6
		c26,61.5,39.2,126.9,39.2,194.2s-13.2,132.7-39.2,194.2c-25.1,59.4-61.1,112.8-106.9,158.6s-99.2,81.8-158.6,106.9
		C632.7,985.8,567.4,999,500,999s-132.7-13.2-194.2-39.2c-59.4-25.1-112.8-61.1-158.6-106.9S65.3,753.7,40.2,694.2
		C14.2,632.7,1,567.4,1,500s13.2-132.7,39.2-194.2c25.1-59.4,61.1-112.8,106.9-158.6s99.2-81.8,158.6-106.9
		C367.3,14.2,432.6,1,500,1 M500,0C223.9,0,0,223.9,0,500s223.9,500,500,500s500-223.9,500-500S776.1,0,500,0L500,0z"/>
</g>
<path class="st1" d="M865.3,577.5c0,36.6-29.7,66.2-66.3,66.2c-2.7,0-5.4-0.2-8.1-0.5l-110.1-13.7c-20.2-2.5-38.1-14.2-48.6-31.7
	L588,524.3c-4.7-7.7-13-12.5-22-12.5l-132,0c-9,0-17.4,4.8-22.1,12.5l-44.1,73.5c-10.5,17.4-28.4,29.1-48.6,31.7l-110.1,13.7
	c-39.6,4.9-74.5-25.9-74.5-65.7v-55.5c0-39.7,21-78.2,58.4-96.1c95.8-46,200.7-69.7,306.9-69.5c106.2-0.2,211.1,23.6,306.9,69.5
	c37.4,17.9,58.4,56.4,58.4,96.1V577.5z"/>
</svg>
