<?xml version="1.0" encoding="utf-8"?>
<!-- Generator: Adobe Illustrator 27.7.0, SVG Export Plug-In . SVG Version: 6.00 Build 0)  -->
<svg version="1.1" id="Layer_1" xmlns="http://www.w3.org/2000/svg" xmlns:xlink="http://www.w3.org/1999/xlink" x="0px" y="0px"
	 viewBox="0 0 1000 1000" style="enable-background:new 0 0 1000 1000;" xml:space="preserve">
<style type="text/css">
	.st0{fill:#FFFFFF;}
</style>
<g>
	<circle cx="500" cy="500" r="500"/>
</g>
<path class="st0" d="M500,922.2c-233.2,0-422.2-189-422.2-422.2S266.8,77.8,500,77.8s422.2,189,422.2,422.2S733.2,922.2,500,922.2
	 M500,982.6c266.5,0,482.6-216.1,482.6-482.6S766.5,17.4,500,17.4S17.4,233.5,17.4,500S233.5,982.6,500,982.6"/>
<path class="st0" d="M319,394.4c0-41.6,33.8-75.4,75.4-75.4s75.4,33.8,75.4,75.4v211.1c0,41.6-33.8,75.4-75.4,75.4
	S319,647.2,319,605.6V394.4z M530.2,394.4c0-41.6,33.8-75.4,75.4-75.4s75.4,33.8,75.4,75.4v211.1c0,41.6-33.8,75.4-75.4,75.4
	s-75.4-33.8-75.4-75.4V394.4z"/>
</svg>
