<?xml version="1.0" encoding="utf-8"?>
<!-- Generator: Adobe Illustrator 27.7.0, SVG Export Plug-In . SVG Version: 6.00 Build 0)  -->
<svg version="1.1" id="Layer_1" xmlns="http://www.w3.org/2000/svg" xmlns:xlink="http://www.w3.org/1999/xlink" x="0px" y="0px"
	 viewBox="0 0 1000 1000" style="enable-background:new 0 0 1000 1000;" xml:space="preserve">
<style type="text/css">
	.st0{fill:#FFFFFF;}
</style>
<g>
	<circle class="st0" cx="500" cy="500" r="500"/>
</g>
<path d="M500,937.5C258.4,937.5,62.5,741.6,62.5,500S258.4,62.5,500,62.5S937.5,258.4,937.5,500S741.6,937.5,500,937.5 M500,1000
	c276.1,0,500-223.9,500-500S776.1,0,500,0S0,223.9,0,500S223.9,1000,500,1000"/>
<path d="M319,394.4c0-41.6,33.8-75.4,75.4-75.4s75.4,33.8,75.4,75.4v211.1c0,41.6-33.8,75.4-75.4,75.4S319,647.2,319,605.6V394.4z
	 M530.2,394.4c0-41.6,33.8-75.4,75.4-75.4s75.4,33.8,75.4,75.4v211.1c0,41.6-33.8,75.4-75.4,75.4s-75.4-33.8-75.4-75.4V394.4z"/>
</svg>
