<?xml version="1.0" encoding="UTF-8"?>
<svg id="Layer_1" xmlns="http://www.w3.org/2000/svg" version="1.1" viewBox="0 0 1000 1000">
  <!-- Generator: Adobe Illustrator 30.0.0, SVG Export Plug-In . SVG Version: 2.1.1 Build 123)  -->
  <defs>
    <style>
      .st0 {
        display: none;
      }

      .st0, .st1 {
        fill: #fff;
      }
    </style>
  </defs>
  <circle cx="500" cy="500" r="500"/>
  <path class="st0" d="M500,922.2c-233.2,0-422.2-189-422.2-422.2S266.8,77.8,500,77.8s422.2,189,422.2,422.2-189,422.2-422.2,422.2M500,982.6c266.5,0,482.6-216.1,482.6-482.6S766.5,17.4,500,17.4,17.4,233.5,17.4,500s216.1,482.6,482.6,482.6"/>
  <path class="st1" d="M319,394.4c0-41.6,33.8-75.4,75.4-75.4s75.4,33.8,75.4,75.4v211.1c0,41.6-33.8,75.4-75.4,75.4s-75.4-33.8-75.4-75.4v-211.1ZM530.2,394.4c0-41.6,33.8-75.4,75.4-75.4s75.4,33.8,75.4,75.4v211.1c0,41.6-33.8,75.4-75.4,75.4s-75.4-33.8-75.4-75.4v-211.1Z"/>
</svg>