<?xml version="1.0" encoding="UTF-8"?>
<svg id="Layer_1" xmlns="http://www.w3.org/2000/svg" version="1.1" viewBox="0 0 16 16">
  <!-- Generator: Adobe Illustrator 30.0.0, SVG Export Plug-In . SVG Version: 2.1.1 Build 123)  -->
  <defs>
    <style>
      .st0 {
        fill-rule: evenodd;
      }

      .st0, .st1 {
        fill: #fff;
      }
    </style>
  </defs>
  <circle cx="8" cy="8" r="8"/>
  <path class="st1" d="M10.9,7.2h3.3c.1,0,.2,0,.2.2,0,0,0,0,0,.1l-1.6,2c0,0-.2.1-.3,0,0,0,0,0,0,0l-1.6-2c0,0,0-.2,0-.3,0,0,0,0,.1,0M1.8,8.8h3.3c.1,0,.2,0,.2-.2,0,0,0,0,0-.1l-1.6-2c0,0-.2-.1-.3,0,0,0,0,0,0,0l-1.6,2c0,0,0,.2,0,.3,0,0,0,0,.1,0"/>
  <path class="st0" d="M8,3.8c-1.3,0-2.4.6-3.2,1.5-.1.2-.4.2-.6,0-.2-.1-.2-.4,0-.6,0,0,0,0,0,0,1.8-2.1,4.9-2.4,7-.7.9.8,1.5,1.8,1.7,3h-.8c-.4-1.9-2.1-3.3-4.1-3.3M3.9,8.8c.5,2.3,2.7,3.7,4.9,3.2.9-.2,1.8-.7,2.4-1.4.1-.2.4-.2.6,0,.2.1.2.4,0,.6,0,0,0,0,0,0-1.8,2.1-4.9,2.4-7,.7-.9-.8-1.5-1.8-1.7-3h.8Z"/>
</svg>