<?xml version="1.0" encoding="UTF-8"?>
<svg id="Layer_1" xmlns="http://www.w3.org/2000/svg" version="1.1" viewBox="0 0 1000 1000">
  <!-- Generator: Adobe Illustrator 30.0.0, SVG Export Plug-In . SVG Version: 2.1.1 Build 123)  -->
  <defs>
    <style>
      .st0 {
        fill-rule: evenodd;
      }

      .st0, .st1, .st2 {
        fill: #fff;
      }

      .st1 {
        display: none;
      }
    </style>
  </defs>
  <circle cx="500" cy="500" r="500"/>
  <path class="st1" d="M500,937.5c-241.6,0-437.5-195.9-437.5-437.5S258.4,62.5,500,62.5s437.5,195.9,437.5,437.5-195.9,437.5-437.5,437.5M500,1000c276.1,0,500-223.9,500-500S776.1,0,500,0,0,223.9,0,500s223.9,500,500,500"/>
  <path class="st0" d="M464,459.4c10.1-16.6,24.6-37.9,43.6-59.3,40.5-45.6,103.4-93.5,188.5-93.5v38.7c-69.6,0-122.7,39.1-159.6,80.5-19.9,22.6-37.1,47.5-51,74.2-21.5,40.6-5.9,15.7-21.5,40.6-10.1,16.6-24.6,37.9-43.6,59.3-40.5,45.6-103.4,93.5-188.5,93.5h-19.3c-10.7,0-19.3-8.7-19.3-19.3s8.7-19.3,19.3-19.3h19.3c69.6,0,122.7-39.1,159.6-80.5,19.9-22.6,37.1-47.5,51-74.2"/>
  <path class="st2" d="M696.1,402v-152.1c0-5.3,4.3-9.7,9.7-9.7,2.3,0,4.4.8,6.2,2.2l91.3,76.1c4.6,3.9,4.6,11,0,14.9l-91.3,76.1c-4.1,3.4-10.2,2.9-13.6-1.2-1.4-1.7-2.2-3.9-2.2-6.2"/>
</svg>